<?xml version="1.0" encoding="UTF-8"?>
<svg height="200px" width="200px" version="1.1" id="Layer_1" xmlns="http://www.w3.org/2000/svg" xmlns:xlink="http://www.w3.org/1999/xlink" viewBox="0 0 336.262 336.262" xml:space="preserve" fill="#000000"><g id="SVGRepo_bgCarrier" stroke-width="0"></g><g id="SVGRepo_tracerCarrier" stroke-linecap="round" stroke-linejoin="round"></g><g id="SVGRepo_iconCarrier"> <g id="XMLID_1165_"> <path id="XMLID_1166_" style="fill:#5FD2DB;" d="M245.853,336.262H90.412c-13.361,0-25.28-8.399-29.774-20.982L25.545,209.029 h285.173L275.627,315.28C271.133,327.863,259.214,336.262,245.853,336.262z"></path> <path id="XMLID_585_" style="fill:#FFFEB9;" d="M302.052,214.495H34.212c-18.145,0-32.991-14.846-32.991-32.991l0,0 c0-18.145,14.846-32.991,32.991-32.991h267.839c18.145,0,32.991,14.846,32.991,32.991l0,0 C335.042,199.649,320.197,214.495,302.052,214.495z"></path> <path id="XMLID_584_" style="fill:#FFE165;" d="M272.05,162.991H64.214c-18.145,0-32.991-14.846-32.991-32.991l0,0 c0-18.145,14.846-32.991,32.991-32.991h207.835c18.145,0,32.991,14.846,32.991,32.991l0,0 C305.04,148.146,290.195,162.991,272.05,162.991z"></path> <path id="XMLID_583_" style="fill:#FFFEB9;" d="M222.844,111.488H113.42c-18.145,0-32.991-14.846-32.991-32.991l0,0 c0-18.145,14.846-32.991,32.991-32.991h109.425c18.145,0,32.991,14.846,32.991,32.991l0,0 C255.835,96.642,240.989,111.488,222.844,111.488z"></path> <g id="XMLID_1167_"> <circle id="XMLID_1168_" style="fill:#FF5959;" cx="126.132" cy="41.001" r="24"></circle> <circle id="XMLID_1169_" style="fill:#FF5959;" cx="168.132" cy="28" r="28"></circle> <circle id="XMLID_1170_" style="fill:#FF5959;" cx="210.132" cy="41.001" r="24"></circle> </g> </g> </g></svg>